<svg width="157" height="78" viewBox="0 0 157 78" fill="none" xmlns="http://www.w3.org/2000/svg">
<path d="M23.28 22.76V34.088H20.976V25H16.912V22.76H23.28ZM23.28 33.128C24.784 35.496 27.6 36.584 31.408 36.712C34.96 36.872 42.352 36.776 46.224 36.52C45.936 37.064 45.552 38.184 45.456 38.888C41.84 39.048 34.992 39.112 31.408 38.952C27.184 38.792 24.272 37.672 22.288 35.144C20.88 36.52 19.408 37.896 17.808 39.304L16.56 36.968C17.968 35.944 19.696 34.504 21.2 33.128H23.28ZM17.2 12.264L19.024 10.952C21.008 12.392 23.248 14.6 24.24 16.168L22.256 17.672C21.36 16.072 19.152 13.832 17.2 12.264ZM34.032 13.864H36.336V35.848H34.032V13.864ZM29.136 25.192V27.368H41.328V25.192H29.136ZM29.136 21.512V23.624H41.328V21.512H29.136ZM27.056 19.88H43.504V29H27.056V19.88ZM25.36 11.272H45.2V15.432H42.96V13.096H27.504V15.432H25.36V11.272ZM26.032 16.136H44.432V17.928H26.032V16.136ZM24.816 30.92H45.776V32.808H24.816V30.92ZM48.688 31.048H63.28V32.872H48.688V31.048ZM47.824 15.624H63.792V17.48H47.824V15.624ZM54.768 12.712H56.976V36.264H54.768V12.712ZM47.792 36.328C51.696 35.976 57.68 35.4 63.408 34.792L63.44 36.68C58 37.32 52.208 37.992 48.144 38.408L47.792 36.328ZM50.768 25.064V27.432H61.136V25.064H50.768ZM50.768 21.16V23.464H61.136V21.16H50.768ZM48.752 19.496H63.184V29.096H48.752V19.496ZM62.032 10.44L63.248 12.296C59.472 13.128 53.52 13.672 48.72 13.832C48.624 13.32 48.4 12.52 48.144 12.04C52.912 11.784 58.736 11.208 62.032 10.44ZM63.568 17.608H75.12V19.848H63.568V17.608ZM74.192 17.608H76.496C76.496 17.608 76.464 18.504 76.464 18.824C76.112 32.328 75.792 36.808 74.736 38.184C74.16 39.016 73.52 39.304 72.56 39.4C71.664 39.496 70.128 39.496 68.656 39.4C68.592 38.728 68.336 37.736 67.952 37.096C69.52 37.224 70.928 37.256 71.568 37.256C72.08 37.256 72.4 37.16 72.688 36.744C73.488 35.752 73.84 31.144 74.192 18.184V17.608ZM67.44 10.536H69.744C69.712 23.272 69.68 34.024 62.032 39.752C61.648 39.176 60.816 38.408 60.24 38.024C67.568 32.776 67.408 22.632 67.44 10.536ZM80.592 15.848H106.384V30.92H103.888V18.216H82.992V31.08H80.592V15.848ZM81.872 26.728H105.328V29.064H81.872V26.728ZM92.176 10.12H94.672V39.528H92.176V10.12ZM118.288 19.08H120.752V35.144C120.752 36.648 121.136 36.936 122.896 36.936C123.696 36.936 127.728 36.936 128.816 36.936C130.704 36.936 130.992 35.752 131.248 30.216C131.824 30.696 132.816 31.144 133.52 31.304C133.168 37.352 132.432 39.144 128.944 39.144C128.176 39.144 123.408 39.144 122.672 39.144C119.28 39.144 118.288 38.28 118.288 35.144V19.08ZM118.544 12.104L120.048 10.28C123.92 11.592 128.56 13.896 131.088 15.624L129.552 17.736C127.088 15.88 122.416 13.48 118.544 12.104ZM112.944 21.64L115.248 22.12C114.768 26.408 113.776 31.528 111.472 34.6L109.296 33.288C111.44 30.472 112.496 25.8 112.944 21.64ZM131.6 21.672L133.744 20.616C136.624 24.264 139.024 29.096 139.824 32.488L137.424 33.64C136.72 30.28 134.32 25.288 131.6 21.672ZM15.8955 70.264C14.8541 70.264 13.9008 70.0733 13.0355 69.692C12.1701 69.296 11.4368 68.7607 10.8355 68.086C10.2341 67.4113 9.80146 66.656 9.53746 65.82L11.4075 65.05C11.8035 66.106 12.3901 66.92 13.1675 67.492C13.9595 68.0493 14.8835 68.328 15.9395 68.328C16.5848 68.328 17.1495 68.2253 17.6335 68.02C18.1175 67.8147 18.4915 67.5287 18.7555 67.162C19.0341 66.7807 19.1735 66.3407 19.1735 65.842C19.1735 65.1527 18.9755 64.61 18.5795 64.214C18.1981 63.8033 17.6335 63.4953 16.8855 63.29L13.8715 62.366C12.6835 61.9993 11.7741 61.42 11.1435 60.628C10.5128 59.836 10.1975 58.9267 10.1975 57.9C10.1975 57.0053 10.4101 56.2207 10.8355 55.546C11.2755 54.8567 11.8768 54.3213 12.6395 53.94C13.4168 53.544 14.2968 53.346 15.2795 53.346C16.2621 53.346 17.1495 53.522 17.9415 53.874C18.7481 54.226 19.4301 54.7027 19.9875 55.304C20.5448 55.8907 20.9555 56.5653 21.2195 57.328L19.3715 58.098C19.0195 57.174 18.4915 56.4773 17.7875 56.008C17.0835 55.524 16.2548 55.282 15.3015 55.282C14.7148 55.282 14.1941 55.3847 13.7395 55.59C13.2995 55.7807 12.9548 56.0667 12.7055 56.448C12.4708 56.8147 12.3535 57.2547 12.3535 57.768C12.3535 58.3693 12.5441 58.9047 12.9255 59.374C13.3068 59.8433 13.8861 60.2027 14.6635 60.452L17.4135 61.266C18.7041 61.662 19.6795 62.2267 20.3395 62.96C20.9995 63.6933 21.3295 64.6027 21.3295 65.688C21.3295 66.5827 21.0948 67.3747 20.6255 68.064C20.1708 68.7533 19.5328 69.296 18.7115 69.692C17.9048 70.0733 16.9661 70.264 15.8955 70.264ZM23.5841 74.4V58.142H25.5861V60.694L25.3221 60.188C25.7621 59.484 26.3635 58.9267 27.1261 58.516C27.8888 58.0907 28.7615 57.878 29.7441 57.878C30.8588 57.878 31.8561 58.1493 32.7361 58.692C33.6308 59.2347 34.3348 59.9753 34.8481 60.914C35.3615 61.838 35.6181 62.894 35.6181 64.082C35.6181 65.2407 35.3615 66.2893 34.8481 67.228C34.3348 68.1667 33.6308 68.9073 32.7361 69.45C31.8561 69.9927 30.8515 70.264 29.7221 70.264C28.7688 70.264 27.8961 70.0513 27.1041 69.626C26.3268 69.2007 25.7255 68.5993 25.3001 67.822L25.6301 67.47V74.4H23.5841ZM29.5681 68.284C30.3161 68.284 30.9835 68.1007 31.5701 67.734C32.1568 67.3673 32.6115 66.8687 32.9341 66.238C33.2715 65.5927 33.4401 64.874 33.4401 64.082C33.4401 63.2607 33.2715 62.542 32.9341 61.926C32.6115 61.2953 32.1568 60.7967 31.5701 60.43C30.9835 60.0487 30.3161 59.858 29.5681 59.858C28.8201 59.858 28.1455 60.0413 27.5441 60.408C26.9575 60.7747 26.4881 61.2807 26.1361 61.926C25.7988 62.5567 25.6301 63.2753 25.6301 64.082C25.6301 64.874 25.7988 65.5927 26.1361 66.238C26.4881 66.8687 26.9575 67.3673 27.5441 67.734C28.1455 68.1007 28.8201 68.284 29.5681 68.284ZM43.2729 70.264C42.1289 70.264 41.0949 70 40.1709 69.472C39.2469 68.9293 38.5136 68.1887 37.9709 67.25C37.4282 66.3113 37.1569 65.248 37.1569 64.06C37.1569 62.872 37.4209 61.816 37.9489 60.892C38.4916 59.968 39.2249 59.2347 40.1489 58.692C41.0729 58.1493 42.1142 57.878 43.2729 57.878C44.4169 57.878 45.4509 58.1493 46.3749 58.692C47.2989 59.22 48.0249 59.946 48.5529 60.87C49.0956 61.794 49.3669 62.8573 49.3669 64.06C49.3669 65.2627 49.0882 66.3333 48.5309 67.272C47.9736 68.196 47.2329 68.9293 46.3089 69.472C45.3996 70 44.3876 70.264 43.2729 70.264ZM43.2729 68.284C44.0062 68.284 44.6662 68.1007 45.2529 67.734C45.8542 67.3673 46.3236 66.8613 46.6609 66.216C47.0129 65.5707 47.1889 64.852 47.1889 64.06C47.1889 63.2533 47.0129 62.542 46.6609 61.926C46.3236 61.2953 45.8542 60.7967 45.2529 60.43C44.6662 60.0487 44.0062 59.858 43.2729 59.858C42.5249 59.858 41.8502 60.0487 41.2489 60.43C40.6622 60.7967 40.1929 61.2953 39.8409 61.926C39.4889 62.542 39.3129 63.2533 39.3129 64.06C39.3129 64.852 39.4889 65.5707 39.8409 66.216C40.1929 66.8613 40.6622 67.3673 41.2489 67.734C41.8502 68.1007 42.5249 68.284 43.2729 68.284ZM51.3754 70V58.142H53.3774V60.32L53.1574 60.012C53.4361 59.3373 53.8614 58.8387 54.4334 58.516C55.0054 58.1787 55.7021 58.01 56.5234 58.01H57.2494V59.946H56.2154C55.3794 59.946 54.7048 60.21 54.1914 60.738C53.6781 61.2513 53.4214 61.9847 53.4214 62.938V70H51.3754ZM63.3323 70.132C62.1736 70.132 61.2789 69.802 60.6483 69.142C60.0323 68.482 59.7243 67.5507 59.7243 66.348V60.1H57.5683V58.142H58.0083C58.5363 58.142 58.9543 57.9807 59.2623 57.658C59.5703 57.3353 59.7243 56.91 59.7243 56.382V55.414H61.7703V58.142H64.4323V60.1H61.7703V66.282C61.7703 66.678 61.8289 67.0227 61.9463 67.316C62.0783 67.6093 62.2909 67.844 62.5843 68.02C62.8776 68.1813 63.2663 68.262 63.7503 68.262C63.8529 68.262 63.9776 68.2547 64.1243 68.24C64.2856 68.2253 64.4323 68.2107 64.5643 68.196V70C64.3736 70.044 64.1609 70.0733 63.9263 70.088C63.6916 70.1173 63.4936 70.132 63.3323 70.132ZM70.8229 70.264C69.6349 70.264 68.6009 69.9707 67.7209 69.384C66.8409 68.7973 66.2176 68.0053 65.8509 67.008L67.4789 66.216C67.8163 66.92 68.2783 67.4773 68.8649 67.888C69.4516 68.2987 70.1043 68.504 70.8229 68.504C71.4683 68.504 72.0036 68.35 72.4289 68.042C72.8543 67.734 73.0669 67.3307 73.0669 66.832C73.0669 66.48 72.9643 66.2013 72.7589 65.996C72.5683 65.776 72.3336 65.6073 72.0549 65.49C71.7763 65.358 71.5196 65.2627 71.2849 65.204L69.5029 64.698C68.4323 64.39 67.6476 63.95 67.1489 63.378C66.6649 62.806 66.4229 62.1387 66.4229 61.376C66.4229 60.672 66.5989 60.0633 66.9509 59.55C67.3176 59.022 67.8089 58.6113 68.4249 58.318C69.0556 58.0247 69.7596 57.878 70.5369 57.878C71.5783 57.878 72.5096 58.142 73.3309 58.67C74.1669 59.198 74.7609 59.9387 75.1129 60.892L73.4409 61.662C73.1769 61.046 72.7809 60.562 72.2529 60.21C71.7249 59.8433 71.1309 59.66 70.4709 59.66C69.8696 59.66 69.3929 59.814 69.0409 60.122C68.6889 60.4153 68.5129 60.7893 68.5129 61.244C68.5129 61.5813 68.6009 61.86 68.7769 62.08C68.9529 62.2853 69.1656 62.4467 69.4149 62.564C69.6643 62.6667 69.9063 62.7547 70.1409 62.828L72.0769 63.4C73.0449 63.6787 73.7929 64.1113 74.3209 64.698C74.8636 65.2847 75.1349 65.9887 75.1349 66.81C75.1349 67.47 74.9516 68.064 74.5849 68.592C74.2183 69.12 73.7123 69.5307 73.0669 69.824C72.4216 70.1173 71.6736 70.264 70.8229 70.264ZM88.084 70.264C86.9253 70.264 85.8547 70.0587 84.872 69.648C83.904 69.2227 83.0533 68.6287 82.32 67.866C81.6013 67.1033 81.044 66.2087 80.648 65.182C80.252 64.1553 80.054 63.0333 80.054 61.816C80.054 60.584 80.252 59.4547 80.648 58.428C81.044 57.4013 81.6013 56.5067 82.32 55.744C83.0387 54.9813 83.8893 54.3947 84.872 53.984C85.8547 53.5587 86.9253 53.346 88.084 53.346C89.2133 53.346 90.2253 53.544 91.12 53.94C92.0293 54.336 92.792 54.8493 93.408 55.48C94.0387 56.1107 94.486 56.7853 94.75 57.504L92.77 58.406C92.3887 57.4967 91.7947 56.7633 90.988 56.206C90.1813 55.634 89.2133 55.348 88.084 55.348C86.94 55.348 85.9207 55.6193 85.026 56.162C84.146 56.7047 83.4567 57.46 82.958 58.428C82.4593 59.396 82.21 60.5253 82.21 61.816C82.21 63.092 82.4593 64.214 82.958 65.182C83.4567 66.15 84.146 66.9053 85.026 67.448C85.9207 67.9907 86.94 68.262 88.084 68.262C89.2133 68.262 90.1813 67.9833 90.988 67.426C91.7947 66.854 92.3887 66.1133 92.77 65.204L94.75 66.106C94.486 66.8247 94.0387 67.4993 93.408 68.13C92.792 68.7607 92.0293 69.274 91.12 69.67C90.2253 70.066 89.2133 70.264 88.084 70.264ZM102.022 70.264C100.878 70.264 99.8583 69.9927 98.9637 69.45C98.069 68.9073 97.365 68.1667 96.8517 67.228C96.3383 66.2747 96.0817 65.2113 96.0817 64.038C96.0817 62.85 96.331 61.794 96.8297 60.87C97.343 59.946 98.0323 59.22 98.8977 58.692C99.7777 58.1493 100.76 57.878 101.846 57.878C102.726 57.878 103.503 58.0393 104.178 58.362C104.867 58.67 105.446 59.0953 105.916 59.638C106.4 60.166 106.766 60.7747 107.016 61.464C107.28 62.1387 107.412 62.8427 107.412 63.576C107.412 63.7373 107.397 63.9207 107.368 64.126C107.353 64.3167 107.331 64.5 107.302 64.676H97.5777V62.916H106.114L105.146 63.708C105.278 62.9453 105.204 62.2633 104.926 61.662C104.647 61.0607 104.236 60.584 103.694 60.232C103.151 59.88 102.535 59.704 101.846 59.704C101.156 59.704 100.526 59.88 99.9537 60.232C99.3817 60.584 98.9343 61.09 98.6117 61.75C98.3037 62.3953 98.179 63.1653 98.2377 64.06C98.179 64.9253 98.311 65.688 98.6337 66.348C98.971 66.9933 99.4403 67.4993 100.042 67.866C100.658 68.218 101.325 68.394 102.044 68.394C102.836 68.394 103.503 68.2107 104.046 67.844C104.588 67.4773 105.028 67.008 105.366 66.436L107.082 67.316C106.847 67.8587 106.48 68.3573 105.982 68.812C105.498 69.252 104.918 69.604 104.244 69.868C103.584 70.132 102.843 70.264 102.022 70.264ZM109.419 70V58.142H111.421V60.452L111.091 60.254C111.385 59.506 111.854 58.9267 112.499 58.516C113.159 58.0907 113.929 57.878 114.809 57.878C115.66 57.878 116.415 58.0687 117.075 58.45C117.75 58.8313 118.278 59.3593 118.659 60.034C119.055 60.7087 119.253 61.4713 119.253 62.322V70H117.185V62.982C117.185 62.322 117.068 61.7647 116.833 61.31C116.599 60.8553 116.261 60.5033 115.821 60.254C115.396 59.99 114.905 59.858 114.347 59.858C113.79 59.858 113.291 59.99 112.851 60.254C112.426 60.5033 112.089 60.8627 111.839 61.332C111.59 61.7867 111.465 62.3367 111.465 62.982V70H109.419ZM126.339 70.132C125.18 70.132 124.286 69.802 123.655 69.142C123.039 68.482 122.731 67.5507 122.731 66.348V60.1H120.575V58.142H121.015C121.543 58.142 121.961 57.9807 122.269 57.658C122.577 57.3353 122.731 56.91 122.731 56.382V55.414H124.777V58.142H127.439V60.1H124.777V66.282C124.777 66.678 124.836 67.0227 124.953 67.316C125.085 67.6093 125.298 67.844 125.591 68.02C125.884 68.1813 126.273 68.262 126.757 68.262C126.86 68.262 126.984 68.2547 127.131 68.24C127.292 68.2253 127.439 68.2107 127.571 68.196V70C127.38 70.044 127.168 70.0733 126.933 70.088C126.698 70.1173 126.5 70.132 126.339 70.132ZM134.717 70.264C133.573 70.264 132.554 69.9927 131.659 69.45C130.765 68.9073 130.061 68.1667 129.547 67.228C129.034 66.2747 128.777 65.2113 128.777 64.038C128.777 62.85 129.027 61.794 129.525 60.87C130.039 59.946 130.728 59.22 131.593 58.692C132.473 58.1493 133.456 57.878 134.541 57.878C135.421 57.878 136.199 58.0393 136.873 58.362C137.563 58.67 138.142 59.0953 138.611 59.638C139.095 60.166 139.462 60.7747 139.711 61.464C139.975 62.1387 140.107 62.8427 140.107 63.576C140.107 63.7373 140.093 63.9207 140.063 64.126C140.049 64.3167 140.027 64.5 139.997 64.676H130.273V62.916H138.809L137.841 63.708C137.973 62.9453 137.9 62.2633 137.621 61.662C137.343 61.0607 136.932 60.584 136.389 60.232C135.847 59.88 135.231 59.704 134.541 59.704C133.852 59.704 133.221 59.88 132.649 60.232C132.077 60.584 131.63 61.09 131.307 61.75C130.999 62.3953 130.875 63.1653 130.933 64.06C130.875 64.9253 131.007 65.688 131.329 66.348C131.667 66.9933 132.136 67.4993 132.737 67.866C133.353 68.218 134.021 68.394 134.739 68.394C135.531 68.394 136.199 68.2107 136.741 67.844C137.284 67.4773 137.724 67.008 138.061 66.436L139.777 67.316C139.543 67.8587 139.176 68.3573 138.677 68.812C138.193 69.252 137.614 69.604 136.939 69.868C136.279 70.132 135.539 70.264 134.717 70.264ZM142.115 70V58.142H144.117V60.32L143.897 60.012C144.176 59.3373 144.601 58.8387 145.173 58.516C145.745 58.1787 146.442 58.01 147.263 58.01H147.989V59.946H146.955C146.119 59.946 145.444 60.21 144.931 60.738C144.418 61.2513 144.161 61.9847 144.161 62.938V70H142.115Z" fill="black"/>
</svg>
